<?xml version="1.0" encoding="UTF-8"?>
<!DOCTYPE svg PUBLIC "-//W3C//DTD SVG 1.1//EN"
    "http://www.w3.org/Graphics/SVG/1.1/DTD/svg11.dtd"><svg xmlns="http://www.w3.org/2000/svg" height="549.9367" stroke-opacity="1" viewBox="0 0 500 550" font-size="1" width="500.0000" xmlns:xlink="http://www.w3.org/1999/xlink" stroke="rgb(0,0,0)" version="1.1"><defs></defs><g stroke-linejoin="miter" stroke-opacity="1.0" fill-opacity="0.0" stroke="rgb(0,0,0)" stroke-width="2.097497054302537" fill="rgb(0,0,0)" stroke-linecap="butt" stroke-miterlimit="10.0"><path d="M 500.0000,496.1835 l -0.0000,-496.1835 h -496.1835 l -0.0000,496.1835 Z"/></g><g stroke-linejoin="miter" stroke-opacity="1.0" fill-opacity="1.0" stroke="rgb(0,0,0)" stroke-width="2.097497054302537" fill="rgb(128,128,128)" stroke-linecap="butt" stroke-miterlimit="10.0"><path d="M 292.2232,549.9367 l 68.2252,-12.4046 l 27.7380,-95.1018 h 4.3071 v -14.7674 l 9.9237,-34.0240 l -9.9237,-2.8944 v -10.3372 h -35.4417 l -14.1767,-4.1349 l -1.2060,4.1349 h -99.0644 l -31.0115,62.0229 l 80.6298,107.5064 Z"/></g><g stroke-linejoin="miter" stroke-opacity="1.0" fill-opacity="1.0" stroke="rgb(0,0,0)" stroke-width="0.0" fill="rgb(255,0,0)" stroke-linecap="butt" stroke-miterlimit="10.0"><path d="M 7.6330,496.1835 c 0.0000,-2.1078 -1.7087,-3.8165 -3.8165 -3.8165c -2.1078,-0.0000 -3.8165,1.7087 -3.8165 3.8165c -0.0000,2.1078 1.7087,3.8165 3.8165 3.8165c 2.1078,0.0000 3.8165,-1.7087 3.8165 -3.8165Z"/></g><g stroke-linejoin="miter" stroke-opacity="1.0" fill-opacity="1.0" stroke="rgb(0,0,0)" stroke-width="2.097497054302537" fill="rgb(255,255,255)" stroke-linecap="butt" stroke-miterlimit="10.0"><path d="M 313.9312,475.5092 l -24.8092,-33.0789 h 34.4572 l -9.6480,33.0789 Z"/></g><g stroke-linejoin="miter" stroke-opacity="1.0" fill-opacity="1.0" stroke="rgb(0,0,0)" stroke-width="0.0" fill="rgb(255,0,0)" stroke-linecap="butt" stroke-miterlimit="10.0"><path d="M 4.5056,496.1835 c 0.0000,-0.3806 -0.3085,-0.6891 -0.6891 -0.6891c -0.3806,-0.0000 -0.6891,0.3085 -0.6891 0.6891c -0.0000,0.3806 0.3085,0.6891 0.6891 0.6891c 0.3806,0.0000 0.6891,-0.3085 0.6891 -0.6891Z"/></g><g stroke-linejoin="miter" stroke-opacity="1.0" fill-opacity="0.0" stroke="rgb(255,0,0)" stroke-width="2.097497054302537" fill="rgb(0,0,0)" stroke-linecap="butt" stroke-miterlimit="10.0"><path d="M 402.4172,393.6389 l -59.5420,-17.3664 "/></g><g stroke-linejoin="miter" stroke-opacity="1.0" fill-opacity="0.0" stroke="rgb(255,0,0)" stroke-width="2.097497054302537" fill="rgb(0,0,0)" stroke-linecap="butt" stroke-miterlimit="10.0"><path d="M 360.4484,537.5321 l -117.8436,-157.1248 "/></g><g stroke-linejoin="miter" stroke-opacity="1.0" fill-opacity="0.0" stroke="rgb(255,0,0)" stroke-width="2.097497054302537" fill="rgb(0,0,0)" stroke-linecap="butt" stroke-miterlimit="10.0"><path d="M 292.2232,549.9367 l -80.6298,-107.5064 "/></g><g stroke-linejoin="miter" stroke-opacity="1.0" fill-opacity="0.0" stroke="rgb(255,0,0)" stroke-width="2.097497054302537" fill="rgb(0,0,0)" stroke-linecap="butt" stroke-miterlimit="10.0"><path d="M 242.6048,380.4074 h 149.8888 "/></g><g stroke-linejoin="miter" stroke-opacity="1.0" fill-opacity="0.0" stroke="rgb(255,0,0)" stroke-width="2.097497054302537" fill="rgb(0,0,0)" stroke-linecap="butt" stroke-miterlimit="10.0"><path d="M 211.5933,442.4303 h 180.9002 "/></g><g stroke-linejoin="miter" stroke-opacity="1.0" fill-opacity="0.0" stroke="rgb(255,0,0)" stroke-width="2.097497054302537" fill="rgb(0,0,0)" stroke-linecap="butt" stroke-miterlimit="10.0"><path d="M 392.4936,442.4303 v -62.0229 "/></g><g stroke-linejoin="miter" stroke-opacity="1.0" fill-opacity="0.0" stroke="rgb(255,0,0)" stroke-width="2.097497054302537" fill="rgb(0,0,0)" stroke-linecap="butt" stroke-miterlimit="10.0"><path d="M 211.5933,442.4303 l 31.0115,-62.0229 "/></g><g stroke-linejoin="miter" stroke-opacity="1.0" fill-opacity="0.0" stroke="rgb(255,0,0)" stroke-width="2.097497054302537" fill="rgb(0,0,0)" stroke-linecap="butt" stroke-miterlimit="10.0"><path d="M 292.2232,549.9367 l 50.6521,-173.6642 "/></g><g stroke-linejoin="miter" stroke-opacity="1.0" fill-opacity="0.0" stroke="rgb(255,0,0)" stroke-width="2.097497054302537" fill="rgb(0,0,0)" stroke-linecap="butt" stroke-miterlimit="10.0"><path d="M 360.4484,537.5321 l 41.9689,-143.8932 "/></g><g stroke-linejoin="miter" stroke-opacity="1.0" fill-opacity="0.0" stroke="rgb(255,0,0)" stroke-width="2.097497054302537" fill="rgb(0,0,0)" stroke-linecap="butt" stroke-miterlimit="10.0"><path d="M 292.2232,549.9367 l 68.2252,-12.4046 "/></g></svg>