<?xml version="1.0" encoding="UTF-8"?>
<!DOCTYPE svg PUBLIC "-//W3C//DTD SVG 1.1//EN"
    "http://www.w3.org/Graphics/SVG/1.1/DTD/svg11.dtd"><svg xmlns="http://www.w3.org/2000/svg" height="574.4000" stroke-opacity="1" viewBox="0 0 500 574" font-size="1" width="500.0000" xmlns:xlink="http://www.w3.org/1999/xlink" stroke="rgb(0,0,0)" version="1.1"><defs></defs><g stroke-linejoin="miter" stroke-opacity="1.0" fill-opacity="0.0" stroke="rgb(0,0,0)" stroke-width="2.1436418260747265" fill="rgb(0,0,0)" stroke-linecap="butt" stroke-miterlimit="10.0"><path d="M 500.0000,496.0728 l -0.0000,-496.0728 h -496.0728 l -0.0000,496.0728 Z"/></g><g stroke-linejoin="miter" stroke-opacity="1.0" fill-opacity="1.0" stroke="rgb(0,0,0)" stroke-width="2.1436418260747265" fill="rgb(128,128,128)" stroke-linecap="butt" stroke-miterlimit="10.0"><path d="M 184.7376,574.4000 h 134.3530 l 31.0045,-62.0091 l -59.4254,-79.2338 l 2.5837,-3.4449 l -11.8113,-8.8584 l -21.2603,-28.3470 l -8.2679,6.2009 l -8.2679,-6.2009 l -21.2603,28.3470 l -11.8113,8.8584 l 2.5837,3.4449 l -59.4254,79.2338 l 31.0045,62.0091 Z"/></g><g stroke-linejoin="miter" stroke-opacity="1.0" fill-opacity="1.0" stroke="rgb(0,0,0)" stroke-width="0.0" fill="rgb(255,0,0)" stroke-linecap="butt" stroke-miterlimit="10.0"><path d="M 7.8545,496.0728 c 0.0000,-2.1690 -1.7583,-3.9272 -3.9272 -3.9272c -2.1690,-0.0000 -3.9272,1.7583 -3.9272 3.9272c -0.0000,2.1690 1.7583,3.9272 3.9272 3.9272c 2.1690,0.0000 3.9272,-1.7583 3.9272 -3.9272Z"/></g><g stroke-linejoin="miter" stroke-opacity="1.0" fill-opacity="1.0" stroke="rgb(0,0,0)" stroke-width="2.1436418260747265" fill="rgb(255,255,255)" stroke-linecap="butt" stroke-miterlimit="10.0"><path d="M 231.2444,512.3909 l 20.6697,-27.5596 l 20.6697,27.5596 h -41.3394 Z"/></g><g stroke-linejoin="miter" stroke-opacity="1.0" fill-opacity="1.0" stroke="rgb(0,0,0)" stroke-width="0.0" fill="rgb(255,0,0)" stroke-linecap="butt" stroke-miterlimit="10.0"><path d="M 4.7540,496.0728 c 0.0000,-0.4566 -0.3702,-0.8268 -0.8268 -0.8268c -0.4566,-0.0000 -0.8268,0.3702 -0.8268 0.8268c -0.0000,0.4566 0.3702,0.8268 0.8268 0.8268c 0.4566,0.0000 0.8268,-0.3702 0.8268 -0.8268Z"/></g><g stroke-linejoin="miter" stroke-opacity="1.0" fill-opacity="0.0" stroke="rgb(255,0,0)" stroke-width="2.1436418260747265" fill="rgb(0,0,0)" stroke-linecap="butt" stroke-miterlimit="10.0"><path d="M 293.2535,429.7121 l -49.6073,-37.2055 "/></g><g stroke-linejoin="miter" stroke-opacity="1.0" fill-opacity="0.0" stroke="rgb(255,0,0)" stroke-width="2.1436418260747265" fill="rgb(0,0,0)" stroke-linecap="butt" stroke-miterlimit="10.0"><path d="M 350.0952,512.3909 l -89.9132,-119.8842 "/></g><g stroke-linejoin="miter" stroke-opacity="1.0" fill-opacity="0.0" stroke="rgb(255,0,0)" stroke-width="2.1436418260747265" fill="rgb(0,0,0)" stroke-linecap="butt" stroke-miterlimit="10.0"><path d="M 319.0906,574.4000 l -108.5159,-144.6879 "/></g><g stroke-linejoin="miter" stroke-opacity="1.0" fill-opacity="0.0" stroke="rgb(255,0,0)" stroke-width="2.1436418260747265" fill="rgb(0,0,0)" stroke-linecap="butt" stroke-miterlimit="10.0"><path d="M 184.7376,574.4000 l -31.0045,-62.0091 "/></g><g stroke-linejoin="miter" stroke-opacity="1.0" fill-opacity="0.0" stroke="rgb(255,0,0)" stroke-width="2.1436418260747265" fill="rgb(0,0,0)" stroke-linecap="butt" stroke-miterlimit="10.0"><path d="M 153.7330,512.3909 h 196.3621 "/></g><g stroke-linejoin="miter" stroke-opacity="1.0" fill-opacity="0.0" stroke="rgb(255,0,0)" stroke-width="2.1436418260747265" fill="rgb(0,0,0)" stroke-linecap="butt" stroke-miterlimit="10.0"><path d="M 210.5747,429.7121 l 49.6073,-37.2055 "/></g><g stroke-linejoin="miter" stroke-opacity="1.0" fill-opacity="0.0" stroke="rgb(255,0,0)" stroke-width="2.1436418260747265" fill="rgb(0,0,0)" stroke-linecap="butt" stroke-miterlimit="10.0"><path d="M 153.7330,512.3909 l 89.9132,-119.8842 "/></g><g stroke-linejoin="miter" stroke-opacity="1.0" fill-opacity="0.0" stroke="rgb(255,0,0)" stroke-width="2.1436418260747265" fill="rgb(0,0,0)" stroke-linecap="butt" stroke-miterlimit="10.0"><path d="M 184.7376,574.4000 h 134.3530 "/></g><g stroke-linejoin="miter" stroke-opacity="1.0" fill-opacity="0.0" stroke="rgb(255,0,0)" stroke-width="2.1436418260747265" fill="rgb(0,0,0)" stroke-linecap="butt" stroke-miterlimit="10.0"><path d="M 184.7376,574.4000 l 108.5159,-144.6879 "/></g><g stroke-linejoin="miter" stroke-opacity="1.0" fill-opacity="0.0" stroke="rgb(255,0,0)" stroke-width="2.1436418260747265" fill="rgb(0,0,0)" stroke-linecap="butt" stroke-miterlimit="10.0"><path d="M 319.0906,574.4000 l 31.0045,-62.0091 "/></g></svg>