<?xml version="1.0" encoding="UTF-8"?>
<!DOCTYPE svg PUBLIC "-//W3C//DTD SVG 1.1//EN"
    "http://www.w3.org/Graphics/SVG/1.1/DTD/svg11.dtd"><svg xmlns="http://www.w3.org/2000/svg" height="784.4083" stroke-opacity="1" viewBox="0 0 500 784" font-size="1" width="500.0000" xmlns:xlink="http://www.w3.org/1999/xlink" stroke="rgb(0,0,0)" version="1.1"><defs></defs><g stroke-linejoin="miter" stroke-opacity="1.0" fill-opacity="0.0" stroke="rgb(0,0,0)" stroke-width="2.5050481823258086" fill="rgb(0,0,0)" stroke-linecap="butt" stroke-miterlimit="10.0"><path d="M 46.7115,783.5667 l -0.0000,-45.8700 h -45.8700 l -0.0000,45.8700 Z"/></g><g stroke-linejoin="miter" stroke-opacity="1.0" fill-opacity="1.0" stroke="rgb(0,0,0)" stroke-width="2.5050481823258086" fill="rgb(128,128,128)" stroke-linecap="butt" stroke-miterlimit="10.0"><path d="M 458.4472,20.5503 l 41.5528,-19.4273 l -0.5251,-1.1230 l -41.5528,19.4273 l 0.5251,1.1230 Z"/></g><g stroke-linejoin="miter" stroke-opacity="1.0" fill-opacity="1.0" stroke="rgb(0,0,0)" stroke-width="0.0" fill="rgb(255,0,0)" stroke-linecap="butt" stroke-miterlimit="10.0"><path d="M 1.6831,783.5667 c 0.0000,-0.4648 -0.3768,-0.8416 -0.8416 -0.8416c -0.4648,-0.0000 -0.8416,0.3768 -0.8416 0.8416c -0.0000,0.4648 0.3768,0.8416 0.8416 0.8416c 0.4648,0.0000 0.8416,-0.3768 0.8416 -0.8416Z"/></g><g stroke-linejoin="miter" stroke-opacity="1.0" fill-opacity="0.0" stroke="rgb(255,0,0)" stroke-width="2.5050481823258086" fill="rgb(0,0,0)" stroke-linecap="butt" stroke-miterlimit="10.0"><path d="M 457.9222,19.4273 l 41.5528,-19.4273 "/></g><g stroke-linejoin="miter" stroke-opacity="1.0" fill-opacity="0.0" stroke="rgb(255,0,0)" stroke-width="2.5050481823258086" fill="rgb(0,0,0)" stroke-linecap="butt" stroke-miterlimit="10.0"><path d="M 458.4472,20.5503 l 41.5528,-19.4273 "/></g><g stroke-linejoin="miter" stroke-opacity="1.0" fill-opacity="0.0" stroke="rgb(255,0,0)" stroke-width="2.5050481823258086" fill="rgb(0,0,0)" stroke-linecap="butt" stroke-miterlimit="10.0"><path d="M 500.0000,1.1230 l -0.5251,-1.1230 "/></g><g stroke-linejoin="miter" stroke-opacity="1.0" fill-opacity="0.0" stroke="rgb(255,0,0)" stroke-width="2.5050481823258086" fill="rgb(0,0,0)" stroke-linecap="butt" stroke-miterlimit="10.0"><path d="M 458.4472,20.5503 l -0.5251,-1.1230 "/></g></svg>