<?xml version="1.0" encoding="UTF-8"?>
<!DOCTYPE svg PUBLIC "-//W3C//DTD SVG 1.1//EN"
    "http://www.w3.org/Graphics/SVG/1.1/DTD/svg11.dtd"><svg xmlns="http://www.w3.org/2000/svg" height="667.2234" stroke-opacity="1" viewBox="0 0 500 667" font-size="1" width="500.0000" xmlns:xlink="http://www.w3.org/1999/xlink" stroke="rgb(0,0,0)" version="1.1"><defs></defs><g stroke-linejoin="miter" stroke-opacity="1.0" fill-opacity="0.0" stroke="rgb(0,0,0)" stroke-width="2.3103651738059137" fill="rgb(0,0,0)" stroke-linecap="butt" stroke-miterlimit="10.0"><path d="M 500.0000,279.3163 l -0.0000,-279.3163 h -279.3163 l -0.0000,279.3163 Z"/></g><g stroke-linejoin="miter" stroke-opacity="1.0" fill-opacity="1.0" stroke="rgb(0,0,0)" stroke-width="2.3103651738059137" fill="rgb(128,128,128)" stroke-linecap="butt" stroke-miterlimit="10.0"><path d="M 168.9744,667.2234 l 124.5622,-182.3328 l -48.0207,-86.2915 l -21.8690,76.7498 l -223.6470,-30.5334 l 168.9744,222.4078 Z"/></g><g stroke-linejoin="miter" stroke-opacity="1.0" fill-opacity="1.0" stroke="rgb(0,0,0)" stroke-width="0.0" fill="rgb(255,0,0)" stroke-linecap="butt" stroke-miterlimit="10.0"><path d="M 226.5544,279.3163 c 0.0000,-3.2423 -2.6284,-5.8707 -5.8707 -5.8707c -3.2423,-0.0000 -5.8707,2.6284 -5.8707 5.8707c -0.0000,3.2423 2.6284,5.8707 5.8707 5.8707c 3.2423,0.0000 5.8707,-2.6284 5.8707 -5.8707Z"/></g><g stroke-linejoin="miter" stroke-opacity="1.0" fill-opacity="0.0" stroke="rgb(255,0,0)" stroke-width="2.3103651738059137" fill="rgb(0,0,0)" stroke-linecap="butt" stroke-miterlimit="10.0"><path d="M 168.9744,667.2234 l 76.5416,-268.6242 "/></g><g stroke-linejoin="miter" stroke-opacity="1.0" fill-opacity="0.0" stroke="rgb(255,0,0)" stroke-width="2.3103651738059137" fill="rgb(0,0,0)" stroke-linecap="butt" stroke-miterlimit="10.0"><path d="M 293.5367,484.8906 l -48.0207,-86.2915 "/></g><g stroke-linejoin="miter" stroke-opacity="1.0" fill-opacity="0.0" stroke="rgb(255,0,0)" stroke-width="2.3103651738059137" fill="rgb(0,0,0)" stroke-linecap="butt" stroke-miterlimit="10.0"><path d="M 168.9744,667.2234 l 124.5622,-182.3328 "/></g><g stroke-linejoin="miter" stroke-opacity="1.0" fill-opacity="0.0" stroke="rgb(255,0,0)" stroke-width="2.3103651738059137" fill="rgb(0,0,0)" stroke-linecap="butt" stroke-miterlimit="10.0"><path d="M 168.9744,667.2234 l -168.9744,-222.4078 "/></g><g stroke-linejoin="miter" stroke-opacity="1.0" fill-opacity="0.0" stroke="rgb(255,0,0)" stroke-width="2.3103651738059137" fill="rgb(0,0,0)" stroke-linecap="butt" stroke-miterlimit="10.0"><path d="M 293.5367,484.8906 l -293.5367,-40.0750 "/></g></svg>