<?xml version="1.0" encoding="UTF-8"?>
<!DOCTYPE svg PUBLIC "-//W3C//DTD SVG 1.1//EN"
    "http://www.w3.org/Graphics/SVG/1.1/DTD/svg11.dtd"><svg xmlns="http://www.w3.org/2000/svg" height="222.8426" stroke-opacity="1" viewBox="0 0 500 223" font-size="1" width="500.0000" xmlns:xlink="http://www.w3.org/1999/xlink" stroke="rgb(0,0,0)" version="1.1"><defs></defs><g stroke-linejoin="miter" stroke-opacity="1.0" fill-opacity="0.0" stroke="rgb(0,0,0)" stroke-width="1.3351930920372257" fill="rgb(0,0,0)" stroke-linecap="butt" stroke-miterlimit="10.0"><path d="M 180.3317,177.8226 l -0.0000,-177.8226 h -177.8226 l -0.0000,177.8226 Z"/></g><g stroke-linejoin="miter" stroke-opacity="1.0" fill-opacity="1.0" stroke="rgb(0,0,0)" stroke-width="1.3351930920372257" fill="rgb(128,128,128)" stroke-linecap="butt" stroke-miterlimit="10.0"><path d="M 472.5044,222.8426 l 27.4956,-75.1480 l -10.5894,-22.8097 l -75.1480,-27.4956 l -6.1101,16.6996 l 75.1480,27.4956 l -27.4956,75.1480 l 16.6996,6.1101 Z"/></g><g stroke-linejoin="miter" stroke-opacity="1.0" fill-opacity="1.0" stroke="rgb(0,0,0)" stroke-width="0.0" fill="rgb(255,0,0)" stroke-linecap="butt" stroke-miterlimit="10.0"><path d="M 5.0181,177.8226 c 0.0000,-1.3857 -1.1233,-2.5091 -2.5091 -2.5091c -1.3857,-0.0000 -2.5091,1.1233 -2.5091 2.5091c -0.0000,1.3857 1.1233,2.5091 2.5091 2.5091c 1.3857,0.0000 2.5091,-1.1233 2.5091 -2.5091Z"/></g><g stroke-linejoin="miter" stroke-opacity="1.0" fill-opacity="0.0" stroke="rgb(255,0,0)" stroke-width="1.3351930920372257" fill="rgb(0,0,0)" stroke-linecap="butt" stroke-miterlimit="10.0"><path d="M 489.4106,124.8849 l -75.1480,-27.4956 "/></g><g stroke-linejoin="miter" stroke-opacity="1.0" fill-opacity="0.0" stroke="rgb(255,0,0)" stroke-width="1.3351930920372257" fill="rgb(0,0,0)" stroke-linecap="butt" stroke-miterlimit="10.0"><path d="M 500.0000,147.6946 l -10.5894,-22.8097 "/></g><g stroke-linejoin="miter" stroke-opacity="1.0" fill-opacity="0.0" stroke="rgb(255,0,0)" stroke-width="1.3351930920372257" fill="rgb(0,0,0)" stroke-linecap="butt" stroke-miterlimit="10.0"><path d="M 500.0000,147.6946 l -91.8475,-33.6057 "/></g><g stroke-linejoin="miter" stroke-opacity="1.0" fill-opacity="0.0" stroke="rgb(255,0,0)" stroke-width="1.3351930920372257" fill="rgb(0,0,0)" stroke-linecap="butt" stroke-miterlimit="10.0"><path d="M 472.5044,222.8426 l -16.6996,-6.1101 "/></g><g stroke-linejoin="miter" stroke-opacity="1.0" fill-opacity="0.0" stroke="rgb(255,0,0)" stroke-width="1.3351930920372257" fill="rgb(0,0,0)" stroke-linecap="butt" stroke-miterlimit="10.0"><path d="M 408.1525,114.0888 l 6.1101,-16.6996 "/></g><g stroke-linejoin="miter" stroke-opacity="1.0" fill-opacity="0.0" stroke="rgb(255,0,0)" stroke-width="1.3351930920372257" fill="rgb(0,0,0)" stroke-linecap="butt" stroke-miterlimit="10.0"><path d="M 455.8048,216.7324 l 33.6057,-91.8475 "/></g><g stroke-linejoin="miter" stroke-opacity="1.0" fill-opacity="0.0" stroke="rgb(255,0,0)" stroke-width="1.3351930920372257" fill="rgb(0,0,0)" stroke-linecap="butt" stroke-miterlimit="10.0"><path d="M 472.5044,222.8426 l 27.4956,-75.1480 "/></g></svg>