<?xml version="1.0" encoding="UTF-8"?>
<!DOCTYPE svg PUBLIC "-//W3C//DTD SVG 1.1//EN"
    "http://www.w3.org/Graphics/SVG/1.1/DTD/svg11.dtd"><svg xmlns="http://www.w3.org/2000/svg" height="490.1961" stroke-opacity="1" viewBox="0 0 500 490" font-size="1" width="500.0000" xmlns:xlink="http://www.w3.org/1999/xlink" stroke="rgb(0,0,0)" version="1.1"><defs></defs><g stroke-linejoin="miter" stroke-opacity="1.0" fill-opacity="0.0" stroke="rgb(0,0,0)" stroke-width="1.9802950859533488" fill="rgb(0,0,0)" stroke-linecap="butt" stroke-miterlimit="10.0"><path d="M 459.5344,449.7305 l -0.0000,-449.7305 h -449.7305 l -0.0000,449.7305 Z"/></g><g stroke-linejoin="miter" stroke-opacity="1.0" fill-opacity="1.0" stroke="rgb(0,0,0)" stroke-width="1.9802950859533488" fill="rgb(128,128,128)" stroke-linecap="butt" stroke-miterlimit="10.0"><path d="M 59.3743,490.1961 l 198.0340,-40.4656 h 152.1560 l 33.3134,-16.6567 l -2.9484,-20.6390 l 60.0707,-12.2747 l -265.3309,-175.2948 l -224.8652,224.8652 h 76.3046 l -26.7342,40.4656 Z"/></g><g stroke-linejoin="miter" stroke-opacity="1.0" fill-opacity="1.0" stroke="rgb(0,0,0)" stroke-width="0.0" fill="rgb(255,0,0)" stroke-linecap="butt" stroke-miterlimit="10.0"><path d="M 19.6078,449.7305 c 0.0000,-5.4146 -4.3894,-9.8039 -9.8039 -9.8039c -5.4146,-0.0000 -9.8039,4.3894 -9.8039 9.8039c -0.0000,5.4146 4.3894,9.8039 9.8039 9.8039c 5.4146,0.0000 9.8039,-4.3894 9.8039 -9.8039Z"/></g><g stroke-linejoin="miter" stroke-opacity="1.0" fill-opacity="1.0" stroke="rgb(0,0,0)" stroke-width="1.9802950859533488" fill="rgb(255,255,255)" stroke-linecap="butt" stroke-miterlimit="10.0"><path d="M 430.9801,421.1761 l -5.7399,-5.7399 l 11.8628,-2.4240 l -6.1229,8.1639 Z"/></g><g stroke-linejoin="miter" stroke-opacity="1.0" fill-opacity="1.0" stroke="rgb(0,0,0)" stroke-width="0.0" fill="rgb(255,0,0)" stroke-linecap="butt" stroke-miterlimit="10.0"><path d="M 10.2537,449.7305 c 0.0000,-0.2484 -0.2014,-0.4497 -0.4497 -0.4497c -0.2484,-0.0000 -0.4497,0.2014 -0.4497 0.4497c -0.0000,0.2484 0.2014,0.4497 0.4497 0.4497c 0.2484,0.0000 0.4497,-0.2014 0.4497 -0.4497Z"/></g><g stroke-linejoin="miter" stroke-opacity="1.0" fill-opacity="0.0" stroke="rgb(255,0,0)" stroke-width="1.9802950859533488" fill="rgb(0,0,0)" stroke-linecap="butt" stroke-miterlimit="10.0"><path d="M 500.0000,400.1601 l -265.3309,-175.2948 "/></g><g stroke-linejoin="miter" stroke-opacity="1.0" fill-opacity="0.0" stroke="rgb(255,0,0)" stroke-width="1.9802950859533488" fill="rgb(0,0,0)" stroke-linecap="butt" stroke-miterlimit="10.0"><path d="M 442.8777,433.0738 l -208.2085,-208.2085 "/></g><g stroke-linejoin="miter" stroke-opacity="1.0" fill-opacity="0.0" stroke="rgb(255,0,0)" stroke-width="1.9802950859533488" fill="rgb(0,0,0)" stroke-linecap="butt" stroke-miterlimit="10.0"><path d="M 442.8777,433.0738 l -3.3313,-23.3194 "/></g><g stroke-linejoin="miter" stroke-opacity="1.0" fill-opacity="0.0" stroke="rgb(255,0,0)" stroke-width="1.9802950859533488" fill="rgb(0,0,0)" stroke-linecap="butt" stroke-miterlimit="10.0"><path d="M 257.4083,449.7305 l -22.7392,-224.8652 "/></g><g stroke-linejoin="miter" stroke-opacity="1.0" fill-opacity="0.0" stroke="rgb(255,0,0)" stroke-width="1.9802950859533488" fill="rgb(0,0,0)" stroke-linecap="butt" stroke-miterlimit="10.0"><path d="M 9.8039,449.7305 l 224.8652,-224.8652 "/></g><g stroke-linejoin="miter" stroke-opacity="1.0" fill-opacity="0.0" stroke="rgb(255,0,0)" stroke-width="1.9802950859533488" fill="rgb(0,0,0)" stroke-linecap="butt" stroke-miterlimit="10.0"><path d="M 9.8039,449.7305 h 399.7604 "/></g><g stroke-linejoin="miter" stroke-opacity="1.0" fill-opacity="0.0" stroke="rgb(255,0,0)" stroke-width="1.9802950859533488" fill="rgb(0,0,0)" stroke-linecap="butt" stroke-miterlimit="10.0"><path d="M 59.3743,490.1961 l 175.2948,-265.3309 "/></g><g stroke-linejoin="miter" stroke-opacity="1.0" fill-opacity="0.0" stroke="rgb(255,0,0)" stroke-width="1.9802950859533488" fill="rgb(0,0,0)" stroke-linecap="butt" stroke-miterlimit="10.0"><path d="M 59.3743,490.1961 l 440.6257,-90.0360 "/></g><g stroke-linejoin="miter" stroke-opacity="1.0" fill-opacity="0.0" stroke="rgb(255,0,0)" stroke-width="1.9802950859533488" fill="rgb(0,0,0)" stroke-linecap="butt" stroke-miterlimit="10.0"><path d="M 409.5643,449.7305 l 33.3134,-16.6567 "/></g><g stroke-linejoin="miter" stroke-opacity="1.0" fill-opacity="0.0" stroke="rgb(255,0,0)" stroke-width="1.9802950859533488" fill="rgb(0,0,0)" stroke-linecap="butt" stroke-miterlimit="10.0"><path d="M 409.5643,449.7305 l 29.9820,-39.9760 "/></g></svg>