<?xml version="1.0" encoding="UTF-8"?>
<!DOCTYPE svg PUBLIC "-//W3C//DTD SVG 1.1//EN"
    "http://www.w3.org/Graphics/SVG/1.1/DTD/svg11.dtd"><svg xmlns="http://www.w3.org/2000/svg" height="479.9310" stroke-opacity="1" viewBox="0 0 500 480" font-size="1" width="500.0000" xmlns:xlink="http://www.w3.org/1999/xlink" stroke="rgb(0,0,0)" version="1.1"><defs></defs><g stroke-linejoin="miter" stroke-opacity="1.0" fill-opacity="0.0" stroke="rgb(0,0,0)" stroke-width="1.9594509112836198" fill="rgb(0,0,0)" stroke-linecap="butt" stroke-miterlimit="10.0"><path d="M 304.6559,302.2630 l -0.0000,-302.2630 h -302.2630 l -0.0000,302.2630 Z"/></g><g stroke-linejoin="miter" stroke-opacity="1.0" fill-opacity="1.0" stroke="rgb(0,0,0)" stroke-width="1.9594509112836198" fill="rgb(128,128,128)" stroke-linecap="butt" stroke-miterlimit="10.0"><path d="M 426.9531,479.9310 l 48.2781,-36.2086 l 2.0990,1.5743 l 5.3976,-7.1967 l 17.2722,-12.9541 l -3.7783,-5.0377 l 3.7783,-5.0377 l -17.2722,-12.9541 l -5.3976,-7.1967 l -2.0990,1.5743 l -48.2781,-36.2086 l -37.7829,18.8914 v 81.8629 l 37.7829,18.8914 Z"/></g><g stroke-linejoin="miter" stroke-opacity="1.0" fill-opacity="1.0" stroke="rgb(0,0,0)" stroke-width="0.0" fill="rgb(255,0,0)" stroke-linecap="butt" stroke-miterlimit="10.0"><path d="M 4.7858,302.2630 c 0.0000,-1.3216 -1.0713,-2.3929 -2.3929 -2.3929c -1.3216,-0.0000 -2.3929,1.0713 -2.3929 2.3929c -0.0000,1.3216 1.0713,2.3929 2.3929 2.3929c 1.3216,0.0000 2.3929,-1.0713 2.3929 -2.3929Z"/></g><g stroke-linejoin="miter" stroke-opacity="1.0" fill-opacity="1.0" stroke="rgb(0,0,0)" stroke-width="1.9594509112836198" fill="rgb(255,255,255)" stroke-linecap="butt" stroke-miterlimit="10.0"><path d="M 426.9531,432.7024 v -25.1886 l 16.7924,12.5943 l -16.7924,12.5943 Z"/></g><g stroke-linejoin="miter" stroke-opacity="1.0" fill-opacity="1.0" stroke="rgb(0,0,0)" stroke-width="0.0" fill="rgb(255,0,0)" stroke-linecap="butt" stroke-miterlimit="10.0"><path d="M 2.8967,302.2630 c 0.0000,-0.2782 -0.2255,-0.5038 -0.5038 -0.5038c -0.2782,-0.0000 -0.5038,0.2255 -0.5038 0.5038c -0.0000,0.2782 0.2255,0.5038 0.5038 0.5038c 0.2782,0.0000 0.5038,-0.2255 0.5038 -0.5038Z"/></g><g stroke-linejoin="miter" stroke-opacity="1.0" fill-opacity="0.0" stroke="rgb(255,0,0)" stroke-width="1.9594509112836198" fill="rgb(0,0,0)" stroke-linecap="butt" stroke-miterlimit="10.0"><path d="M 500.0000,425.1458 l -22.6697,-30.2263 "/></g><g stroke-linejoin="miter" stroke-opacity="1.0" fill-opacity="0.0" stroke="rgb(255,0,0)" stroke-width="1.9594509112836198" fill="rgb(0,0,0)" stroke-linecap="butt" stroke-miterlimit="10.0"><path d="M 500.0000,415.0704 l -73.0469,-54.7852 "/></g><g stroke-linejoin="miter" stroke-opacity="1.0" fill-opacity="0.0" stroke="rgb(255,0,0)" stroke-width="1.9594509112836198" fill="rgb(0,0,0)" stroke-linecap="butt" stroke-miterlimit="10.0"><path d="M 477.3303,445.2967 l -88.1600,-66.1200 "/></g><g stroke-linejoin="miter" stroke-opacity="1.0" fill-opacity="0.0" stroke="rgb(255,0,0)" stroke-width="1.9594509112836198" fill="rgb(0,0,0)" stroke-linecap="butt" stroke-miterlimit="10.0"><path d="M 426.9531,479.9310 l -37.7829,-18.8914 "/></g><g stroke-linejoin="miter" stroke-opacity="1.0" fill-opacity="0.0" stroke="rgb(255,0,0)" stroke-width="1.9594509112836198" fill="rgb(0,0,0)" stroke-linecap="butt" stroke-miterlimit="10.0"><path d="M 426.9531,479.9310 v -119.6458 "/></g><g stroke-linejoin="miter" stroke-opacity="1.0" fill-opacity="0.0" stroke="rgb(255,0,0)" stroke-width="1.9594509112836198" fill="rgb(0,0,0)" stroke-linecap="butt" stroke-miterlimit="10.0"><path d="M 389.1702,461.0395 v -81.8629 "/></g><g stroke-linejoin="miter" stroke-opacity="1.0" fill-opacity="0.0" stroke="rgb(255,0,0)" stroke-width="1.9594509112836198" fill="rgb(0,0,0)" stroke-linecap="butt" stroke-miterlimit="10.0"><path d="M 389.1702,379.1767 l 37.7829,-18.8914 "/></g><g stroke-linejoin="miter" stroke-opacity="1.0" fill-opacity="0.0" stroke="rgb(255,0,0)" stroke-width="1.9594509112836198" fill="rgb(0,0,0)" stroke-linecap="butt" stroke-miterlimit="10.0"><path d="M 477.3303,445.2967 l 22.6697,-30.2263 "/></g><g stroke-linejoin="miter" stroke-opacity="1.0" fill-opacity="0.0" stroke="rgb(255,0,0)" stroke-width="1.9594509112836198" fill="rgb(0,0,0)" stroke-linecap="butt" stroke-miterlimit="10.0"><path d="M 389.1702,461.0395 l 88.1600,-66.1200 "/></g><g stroke-linejoin="miter" stroke-opacity="1.0" fill-opacity="0.0" stroke="rgb(255,0,0)" stroke-width="1.9594509112836198" fill="rgb(0,0,0)" stroke-linecap="butt" stroke-miterlimit="10.0"><path d="M 426.9531,479.9310 l 73.0469,-54.7852 "/></g></svg>