<?xml version="1.0" encoding="UTF-8"?>
<!DOCTYPE svg PUBLIC "-//W3C//DTD SVG 1.1//EN"
    "http://www.w3.org/Graphics/SVG/1.1/DTD/svg11.dtd"><svg xmlns="http://www.w3.org/2000/svg" height="341.3728" stroke-opacity="1" viewBox="0 0 500 341" font-size="1" width="500.0000" xmlns:xlink="http://www.w3.org/1999/xlink" stroke="rgb(0,0,0)" version="1.1"><defs></defs><g stroke-linejoin="miter" stroke-opacity="1.0" fill-opacity="0.0" stroke="rgb(0,0,0)" stroke-width="1.6525683680006544" fill="rgb(0,0,0)" stroke-linecap="butt" stroke-miterlimit="10.0"><path d="M 0.2667,341.3685 l -0.0000,-0.2624 h -0.2624 l -0.0000,0.2624 Z"/></g><g stroke-linejoin="miter" stroke-opacity="1.0" fill-opacity="1.0" stroke="rgb(0,0,0)" stroke-width="1.6525683680006544" fill="rgb(128,128,128)" stroke-linecap="butt" stroke-miterlimit="10.0"><path d="M 499.9274,0.2136 l 0.0726,-0.1592 l -0.1194,-0.0545 l -0.0726,0.1592 l 0.1194,0.0545 Z"/></g><g stroke-linejoin="miter" stroke-opacity="1.0" fill-opacity="1.0" stroke="rgb(0,0,0)" stroke-width="0.0" fill="rgb(255,0,0)" stroke-linecap="butt" stroke-miterlimit="10.0"><path d="M 0.0085,341.3685 c 0.0000,-0.0024 -0.0019,-0.0043 -0.0043 -0.0043c -0.0024,-0.0000 -0.0043,0.0019 -0.0043 0.0043c -0.0000,0.0024 0.0019,0.0043 0.0043 0.0043c 0.0024,0.0000 0.0043,-0.0019 0.0043 -0.0043Z"/></g><g stroke-linejoin="miter" stroke-opacity="1.0" fill-opacity="0.0" stroke="rgb(255,0,0)" stroke-width="1.6525683680006544" fill="rgb(0,0,0)" stroke-linecap="butt" stroke-miterlimit="10.0"><path d="M 500.0000,0.0545 l -0.1194,-0.0545 "/></g><g stroke-linejoin="miter" stroke-opacity="1.0" fill-opacity="0.0" stroke="rgb(255,0,0)" stroke-width="1.6525683680006544" fill="rgb(0,0,0)" stroke-linecap="butt" stroke-miterlimit="10.0"><path d="M 499.9637,0.1341 l -0.1194,-0.0545 "/></g><g stroke-linejoin="miter" stroke-opacity="1.0" fill-opacity="0.0" stroke="rgb(255,0,0)" stroke-width="1.6525683680006544" fill="rgb(0,0,0)" stroke-linecap="butt" stroke-miterlimit="10.0"><path d="M 499.9274,0.2136 l -0.1194,-0.0545 "/></g><g stroke-linejoin="miter" stroke-opacity="1.0" fill-opacity="0.0" stroke="rgb(255,0,0)" stroke-width="1.6525683680006544" fill="rgb(0,0,0)" stroke-linecap="butt" stroke-miterlimit="10.0"><path d="M 499.8080,0.1592 l 0.0726,-0.1592 "/></g><g stroke-linejoin="miter" stroke-opacity="1.0" fill-opacity="0.0" stroke="rgb(255,0,0)" stroke-width="1.6525683680006544" fill="rgb(0,0,0)" stroke-linecap="butt" stroke-miterlimit="10.0"><path d="M 499.9274,0.2136 l 0.0726,-0.1592 "/></g></svg>