<?xml version="1.0" encoding="UTF-8"?>
<!DOCTYPE svg PUBLIC "-//W3C//DTD SVG 1.1//EN"
    "http://www.w3.org/Graphics/SVG/1.1/DTD/svg11.dtd"><svg xmlns="http://www.w3.org/2000/svg" height="500.0000" stroke-opacity="1" viewBox="0 0 500 500" font-size="1" width="500.0000" xmlns:xlink="http://www.w3.org/1999/xlink" stroke="rgb(0,0,0)" version="1.1"><defs></defs><g stroke-linejoin="miter" stroke-opacity="1.0" fill-opacity="0.0" stroke="rgb(0,0,0)" stroke-width="2.0" fill="rgb(0,0,0)" stroke-linecap="butt" stroke-miterlimit="10.0"><path d="M 500.0000,500.0000 l -0.0000,-500.0000 h -500.0000 l -0.0000,500.0000 Z"/></g><g stroke-linejoin="miter" stroke-opacity="1.0" fill-opacity="1.0" stroke="rgb(0,0,0)" stroke-width="2.0" fill="rgb(128,128,128)" stroke-linecap="butt" stroke-miterlimit="10.0"><path d="M 250.0000,250.0000 h 62.5000 v -62.5000 h 31.2500 l 62.5000,-62.5000 v -31.2500 l -62.5000,-62.5000 h -93.7500 v 218.7500 Z"/></g><g stroke-linejoin="miter" stroke-opacity="1.0" fill-opacity="1.0" stroke="rgb(0,0,0)" stroke-width="0.0" fill="rgb(255,0,0)" stroke-linecap="butt" stroke-miterlimit="10.0"><path d="M 254.3750,250.0000 c 0.0000,-2.4162 -1.9588,-4.3750 -4.3750 -4.3750c -2.4162,-0.0000 -4.3750,1.9588 -4.3750 4.3750c -0.0000,2.4162 1.9588,4.3750 4.3750 4.3750c 2.4162,0.0000 4.3750,-1.9588 4.3750 -4.3750Z"/></g><g stroke-linejoin="miter" stroke-opacity="1.0" fill-opacity="1.0" stroke="rgb(0,0,0)" stroke-width="2.0" fill="rgb(255,255,255)" stroke-linecap="butt" stroke-miterlimit="10.0"><path d="M 312.5000,125.0000 v -31.2500 h 31.2500 v 31.2500 h -31.2500 Z"/></g><g stroke-linejoin="miter" stroke-opacity="1.0" fill-opacity="1.0" stroke="rgb(0,0,0)" stroke-width="0.0" fill="rgb(255,0,0)" stroke-linecap="butt" stroke-miterlimit="10.0"><path d="M 250.6250,250.0000 c 0.0000,-0.3452 -0.2798,-0.6250 -0.6250 -0.6250c -0.3452,-0.0000 -0.6250,0.2798 -0.6250 0.6250c -0.0000,0.3452 0.2798,0.6250 0.6250 0.6250c 0.3452,0.0000 0.6250,-0.2798 0.6250 -0.6250Z"/></g><g stroke-linejoin="miter" stroke-opacity="1.0" fill-opacity="0.0" stroke="rgb(255,0,0)" stroke-width="2.0" fill="rgb(0,0,0)" stroke-linecap="butt" stroke-miterlimit="10.0"><path d="M 250.0000,31.2500 h 93.7500 "/></g><g stroke-linejoin="miter" stroke-opacity="1.0" fill-opacity="0.0" stroke="rgb(255,0,0)" stroke-width="2.0" fill="rgb(0,0,0)" stroke-linecap="butt" stroke-miterlimit="10.0"><path d="M 406.2500,93.7500 l -62.5000,-62.5000 "/></g><g stroke-linejoin="miter" stroke-opacity="1.0" fill-opacity="0.0" stroke="rgb(255,0,0)" stroke-width="2.0" fill="rgb(0,0,0)" stroke-linecap="butt" stroke-miterlimit="10.0"><path d="M 312.5000,93.7500 h 93.7500 "/></g><g stroke-linejoin="miter" stroke-opacity="1.0" fill-opacity="0.0" stroke="rgb(255,0,0)" stroke-width="2.0" fill="rgb(0,0,0)" stroke-linecap="butt" stroke-miterlimit="10.0"><path d="M 312.5000,125.0000 h 93.7500 "/></g><g stroke-linejoin="miter" stroke-opacity="1.0" fill-opacity="0.0" stroke="rgb(255,0,0)" stroke-width="2.0" fill="rgb(0,0,0)" stroke-linecap="butt" stroke-miterlimit="10.0"><path d="M 312.5000,93.7500 l -62.5000,-62.5000 "/></g><g stroke-linejoin="miter" stroke-opacity="1.0" fill-opacity="0.0" stroke="rgb(255,0,0)" stroke-width="2.0" fill="rgb(0,0,0)" stroke-linecap="butt" stroke-miterlimit="10.0"><path d="M 312.5000,187.5000 h 31.2500 "/></g><g stroke-linejoin="miter" stroke-opacity="1.0" fill-opacity="0.0" stroke="rgb(255,0,0)" stroke-width="2.0" fill="rgb(0,0,0)" stroke-linecap="butt" stroke-miterlimit="10.0"><path d="M 406.2500,125.0000 v -31.2500 "/></g><g stroke-linejoin="miter" stroke-opacity="1.0" fill-opacity="0.0" stroke="rgb(255,0,0)" stroke-width="2.0" fill="rgb(0,0,0)" stroke-linecap="butt" stroke-miterlimit="10.0"><path d="M 343.7500,187.5000 v -156.2500 "/></g><g stroke-linejoin="miter" stroke-opacity="1.0" fill-opacity="0.0" stroke="rgb(255,0,0)" stroke-width="2.0" fill="rgb(0,0,0)" stroke-linecap="butt" stroke-miterlimit="10.0"><path d="M 312.5000,250.0000 v -218.7500 "/></g><g stroke-linejoin="miter" stroke-opacity="1.0" fill-opacity="0.0" stroke="rgb(255,0,0)" stroke-width="2.0" fill="rgb(0,0,0)" stroke-linecap="butt" stroke-miterlimit="10.0"><path d="M 250.0000,250.0000 v -218.7500 "/></g><g stroke-linejoin="miter" stroke-opacity="1.0" fill-opacity="0.0" stroke="rgb(255,0,0)" stroke-width="2.0" fill="rgb(0,0,0)" stroke-linecap="butt" stroke-miterlimit="10.0"><path d="M 250.0000,250.0000 h 62.5000 "/></g><g stroke-linejoin="miter" stroke-opacity="1.0" fill-opacity="0.0" stroke="rgb(255,0,0)" stroke-width="2.0" fill="rgb(0,0,0)" stroke-linecap="butt" stroke-miterlimit="10.0"><path d="M 343.7500,187.5000 l 62.5000,-62.5000 "/></g></svg>